<svg width="100" height="100" viewBox="0 0 100 100" fill="none" xmlns="http://www.w3.org/2000/svg">
<circle cx="50" cy="50" r="39" stroke="#1A1A1A" stroke-width="2"/>
<path d="M50 64.625C58.0772 64.625 64.625 58.0772 64.625 50C64.625 41.9228 58.0772 35.375 50 35.375C41.9228 35.375 35.375 41.9228 35.375 50C35.375 58.0772 41.9228 64.625 50 64.625Z" stroke="black" stroke-width="2.25" stroke-miterlimit="10" stroke-linecap="round" stroke-linejoin="round"/>
<path d="M50 44.375L43.25 49.1L45.8375 56.75H54.1625L56.75 49.1L50 44.375Z" stroke="black" stroke-width="2.25" stroke-miterlimit="10" stroke-linecap="round" stroke-linejoin="round"/>
<path d="M56.75 48.875L61.25 46.625L62.375 42.2375" stroke="black" stroke-width="2.25" stroke-miterlimit="10" stroke-linecap="round" stroke-linejoin="round"/>
<path d="M45.5 36.5L50 38.75V44.375" stroke="black" stroke-width="2.25" stroke-miterlimit="10" stroke-linecap="round" stroke-linejoin="round"/>
<path d="M54.5 36.5L50 38.75" stroke="black" stroke-width="2.25" stroke-miterlimit="10" stroke-linecap="round" stroke-linejoin="round"/>
<path d="M61.25 46.625L64.5125 48.65" stroke="black" stroke-width="2.25" stroke-miterlimit="10" stroke-linecap="round" stroke-linejoin="round"/>
<path d="M43.1375 48.875L38.6375 46.625L37.5125 42.35" stroke="black" stroke-width="2.25" stroke-miterlimit="10" stroke-linecap="round" stroke-linejoin="round"/>
<path d="M38.6375 46.625L35.4875 48.5375" stroke="black" stroke-width="2.25" stroke-miterlimit="10" stroke-linecap="round" stroke-linejoin="round"/>
<path d="M37.9625 58.325L43.25 59L45.5 56.75" stroke="black" stroke-width="2.25" stroke-miterlimit="10" stroke-linecap="round" stroke-linejoin="round"/>
<path d="M45.5 63.5L43.25 59" stroke="black" stroke-width="2.25" stroke-miterlimit="10" stroke-linecap="round" stroke-linejoin="round"/>
<path d="M61.925 58.4375L56.75 59L54.5 56.75" stroke="black" stroke-width="2.25" stroke-miterlimit="10" stroke-linecap="round" stroke-linejoin="round"/>
<path d="M54.5 63.5L56.75 59" stroke="black" stroke-width="2.25" stroke-miterlimit="10" stroke-linecap="round" stroke-linejoin="round"/>
</svg>
