<svg width="100" height="100" viewBox="0 0 100 100" fill="none" xmlns="http://www.w3.org/2000/svg">
<circle cx="50" cy="50" r="39" stroke="#1A1A1A" stroke-width="2"/>
<path d="M39.875 61.25C41.739 61.25 43.25 59.739 43.25 57.875C43.25 56.011 41.739 54.5 39.875 54.5C38.011 54.5 36.5 56.011 36.5 57.875C36.5 59.739 38.011 61.25 39.875 61.25Z" stroke="black" stroke-width="2.25" stroke-miterlimit="10" stroke-linecap="round" stroke-linejoin="round"/>
<path d="M57.875 61.25C59.739 61.25 61.25 59.739 61.25 57.875C61.25 56.011 59.739 54.5 57.875 54.5C56.011 54.5 54.5 56.011 54.5 57.875C54.5 59.739 56.011 61.25 57.875 61.25Z" stroke="black" stroke-width="2.25" stroke-miterlimit="10" stroke-linecap="round" stroke-linejoin="round"/>
<path d="M63.5 53.375H65.75" stroke="black" stroke-width="2.25" stroke-miterlimit="10" stroke-linecap="round" stroke-linejoin="round"/>
<path d="M36.5 50H59" stroke="black" stroke-width="2.25" stroke-miterlimit="10" stroke-linecap="round" stroke-linejoin="round"/>
<path d="M46.625 43.25L43.25 50" stroke="black" stroke-width="2.25" stroke-miterlimit="10" stroke-linecap="round" stroke-linejoin="round"/>
<path d="M61.25 57.875H65.75C66.425 57.875 66.875 57.425 66.875 56.75V54.5C66.875 52.025 64.85 50 62.375 50H59L54.725 44.825C53.825 43.8125 52.5875 43.25 51.2375 43.25H42.6875C41 43.25 39.425 44.2625 38.6375 45.725L36.5 50H35.375C34.1375 50 33.125 51.0125 33.125 52.25V56.75C33.125 57.425 33.575 57.875 34.25 57.875H36.5" stroke="black" stroke-width="2.25" stroke-miterlimit="10" stroke-linecap="round" stroke-linejoin="round"/>
<path d="M43.25 57.875H54.5" stroke="black" stroke-width="2.25" stroke-miterlimit="10" stroke-linecap="round" stroke-linejoin="round"/>
</svg>
