<svg width="100" height="100" viewBox="0 0 100 100" fill="none" xmlns="http://www.w3.org/2000/svg">
<circle cx="50" cy="50" r="39" stroke="#1A1A1A" stroke-width="2"/>
<path d="M50 63.5C54.9706 63.5 59 59.4706 59 54.5C59 49.5294 54.9706 45.5 50 45.5C45.0294 45.5 41 49.5294 41 54.5C41 59.4706 45.0294 63.5 50 63.5Z" stroke="black" stroke-width="2.25" stroke-miterlimit="10" stroke-linecap="round" stroke-linejoin="round"/>
<path d="M52.25 59C53.4926 59 54.5 57.9926 54.5 56.75C54.5 55.5074 53.4926 54.5 52.25 54.5C51.0074 54.5 50 55.5074 50 56.75C50 57.9926 51.0074 59 52.25 59Z" stroke="black" stroke-width="2.25" stroke-miterlimit="10" stroke-linecap="round" stroke-linejoin="round"/>
<path d="M42.125 64.625L44.375 62.375" stroke="black" stroke-width="2.25" stroke-miterlimit="10" stroke-linecap="round" stroke-linejoin="round"/>
<path d="M57.875 64.625L55.625 62.375" stroke="black" stroke-width="2.25" stroke-miterlimit="10" stroke-linecap="round" stroke-linejoin="round"/>
<path d="M41.5625 45.5C44.3584 45.5 46.625 44.6941 46.625 43.7C46.625 42.7059 44.3584 41.9 41.5625 41.9C38.7666 41.9 36.5 42.7059 36.5 43.7C36.5 44.6941 38.7666 45.5 41.5625 45.5Z" stroke="black" stroke-width="2.25" stroke-miterlimit="10" stroke-linecap="round" stroke-linejoin="round"/>
<path d="M46.625 43.7V38.3C46.625 37.2875 44.375 36.5 41.5625 36.5C38.75 36.5 36.5 37.2875 36.5 38.3V43.8125" stroke="black" stroke-width="2.25" stroke-miterlimit="10" stroke-linecap="round" stroke-linejoin="round"/>
<path d="M59.5625 45.5C62.3584 45.5 64.625 44.6941 64.625 43.7C64.625 42.7059 62.3584 41.9 59.5625 41.9C56.7666 41.9 54.5 42.7059 54.5 43.7C54.5 44.6941 56.7666 45.5 59.5625 45.5Z" stroke="black" stroke-width="2.25" stroke-miterlimit="10" stroke-linecap="round" stroke-linejoin="round"/>
<path d="M64.625 43.7V38.3C64.625 37.2875 62.375 36.5 59.5625 36.5C56.75 36.5 54.5 37.2875 54.5 38.3V43.8125" stroke="black" stroke-width="2.25" stroke-miterlimit="10" stroke-linecap="round" stroke-linejoin="round"/>
</svg>
