<svg width="100" height="100" viewBox="0 0 100 100" fill="none" xmlns="http://www.w3.org/2000/svg">
<circle cx="50" cy="50" r="39" stroke="#1A1A1A" stroke-width="2"/>
<g clip-path="url(#clip0_1_47)">
<path fill-rule="evenodd" clip-rule="evenodd" d="M50 68C49.8594 68 49.7891 67.9297 49.6484 67.8594C47.9609 66.4531 46.5547 64.4844 45.4297 61.9531C44.4453 59.6328 43.7422 56.8203 43.4609 53.9375C43.3906 53.6562 43.6016 53.375 43.8828 53.3047C44.2344 53.3047 44.4453 53.5156 44.5156 53.7969C45.1484 59.4922 47.1172 64.2031 50 66.7344C52.8828 64.2031 54.8516 59.4922 55.4844 53.7969C55.5547 53.5156 55.7656 53.3047 56.1172 53.3047C56.3984 53.375 56.6094 53.6562 56.5391 53.9375C56.2578 56.8203 55.5547 59.6328 54.5703 61.9531C53.4453 64.4844 52.0391 66.4531 50.3516 67.8594C50.2109 67.9297 50.1406 68 50 68ZM56.1875 52.3906C55.8359 52.3906 55.625 52.1094 55.625 51.8281C56.0469 43.9531 53.8672 36.7109 50 33.2656C46.1328 36.7109 43.9531 43.9531 44.375 51.8281C44.375 52.1094 44.1641 52.3906 43.8125 52.3906C43.5312 52.4609 43.25 52.1797 43.25 51.8984C43.0391 47.9609 43.4609 44.0234 44.5156 40.5781C45.6406 36.8516 47.3984 33.9688 49.6484 32.1406C49.8594 32 50.1406 32 50.3516 32.1406C52.6016 33.9688 54.3594 36.8516 55.4844 40.5781C56.5391 44.0234 56.9609 47.9609 56.75 51.8984C56.75 52.1797 56.4688 52.3906 56.1875 52.3906Z" fill="black" stroke="black"/>
<path fill-rule="evenodd" clip-rule="evenodd" d="M39.6641 58.0156C39.5938 58.0156 39.5234 58.0156 39.4531 58.0156C38.8203 57.9453 38.3281 57.5234 37.9766 57.0312L37.2734 55.6953C36.9219 55.2031 36.9219 54.5703 37.1328 54.0078C37.2734 53.5156 37.625 53.2344 38.0469 53.0938L47.1172 50.2812L62.2344 41.5625C62.4453 41.4219 62.7969 41.4922 62.9375 41.7734C63.0781 41.9844 63.0078 42.3359 62.7266 42.4766L47.6094 51.1953L40.6484 57.6641C40.3672 57.875 40.0859 58.0156 39.6641 58.0156ZM45.1484 52.0391L38.3984 54.1484C38.2578 54.1484 38.1875 54.2891 38.1172 54.3594C38.0469 54.6406 38.0469 54.9219 38.1875 55.2031L38.9609 56.4688C39.1016 56.6797 39.3125 56.8906 39.5938 56.9609C39.7344 56.9609 39.875 56.8906 39.9453 56.8203L45.1484 52.0391Z" fill="black" stroke="black"/>
<path fill-rule="evenodd" clip-rule="evenodd" d="M60.3359 58.0156C59.9141 58.0156 59.6328 57.875 59.3516 57.6641L52.3906 51.1953L37.2734 42.4766C36.9922 42.3359 36.9219 41.9844 37.0625 41.7734C37.2031 41.4922 37.5547 41.4219 37.7656 41.5625L52.8828 50.2812L61.9531 53.0938C62.375 53.2344 62.7266 53.5156 62.8672 54.0078C63.0781 54.5703 63.0781 55.2031 62.7266 55.6953L62.0234 57.0312C61.6719 57.5234 61.1797 57.9453 60.5469 58.0156C60.4766 58.0156 60.4062 58.0156 60.3359 58.0156ZM54.8516 52.0391L60.0547 56.8203C60.125 56.8906 60.2656 56.9609 60.4062 56.9609C60.6875 56.8906 60.8984 56.6797 61.0391 56.4688L61.8125 55.2031C61.9531 54.9219 61.9531 54.6406 61.8828 54.3594C61.8125 54.2891 61.7422 54.1484 61.6016 54.1484L54.8516 52.0391Z" fill="black" stroke="black"/>
</g>
<defs>
<clipPath id="clip0_1_47">
<rect width="36" height="36" fill="white" transform="translate(32 32)"/>
</clipPath>
</defs>
</svg>
