<svg width="120" height="120" viewBox="0 0 120 120" fill="none" xmlns="http://www.w3.org/2000/svg">
<mask id="path-1-inside-1_1_35" fill="white">
<path d="M60 0C71.8669 1.41511e-07 83.4673 3.51894 93.3342 10.1118C103.201 16.7047 110.892 26.0754 115.433 37.039C119.974 48.0026 121.162 60.0666 118.847 71.7055C116.532 83.3443 110.818 94.0353 102.426 102.426C94.0352 110.818 83.3442 116.532 71.7053 118.847C60.0665 121.162 48.0025 119.974 37.0389 115.433C26.0753 110.891 16.7046 103.201 10.1118 93.3341C3.5189 83.4672 -2.29172e-05 71.8668 1.11885e-10 59.9999L2.21396 59.9999C2.21394 71.4289 5.60301 82.6012 11.9526 92.1041C18.3022 101.607 27.3271 109.014 37.8862 113.387C48.4452 117.761 60.064 118.905 71.2734 116.676C82.4828 114.446 92.7793 108.942 100.861 100.861C108.942 92.7794 114.446 82.4829 116.676 71.2735C118.905 60.0641 117.761 48.4453 113.387 37.8863C109.014 27.3272 101.607 18.3023 92.1042 11.9527C82.6013 5.60305 71.429 2.21396 60 2.21396V0Z"/>
</mask>
<path d="M60 0C71.8669 1.41511e-07 83.4673 3.51894 93.3342 10.1118C103.201 16.7047 110.892 26.0754 115.433 37.039C119.974 48.0026 121.162 60.0666 118.847 71.7055C116.532 83.3443 110.818 94.0353 102.426 102.426C94.0352 110.818 83.3442 116.532 71.7053 118.847C60.0665 121.162 48.0025 119.974 37.0389 115.433C26.0753 110.891 16.7046 103.201 10.1118 93.3341C3.5189 83.4672 -2.29172e-05 71.8668 1.11885e-10 59.9999L2.21396 59.9999C2.21394 71.4289 5.60301 82.6012 11.9526 92.1041C18.3022 101.607 27.3271 109.014 37.8862 113.387C48.4452 117.761 60.064 118.905 71.2734 116.676C82.4828 114.446 92.7793 108.942 100.861 100.861C108.942 92.7794 114.446 82.4829 116.676 71.2735C118.905 60.0641 117.761 48.4453 113.387 37.8863C109.014 27.3272 101.607 18.3023 92.1042 11.9527C82.6013 5.60305 71.429 2.21396 60 2.21396V0Z" stroke="#1A1A1A" stroke-width="4" mask="url(#path-1-inside-1_1_35)"/>
<path d="M39.171 55.251V57H32.377V55.251H39.171ZM33.0011 44.2031V57H30.795V44.2031H33.0011ZM38.2833 49.5469V51.2695H32.377V49.5469H38.2833ZM39.127 44.2031V45.9609H32.377V44.2031H39.127ZM43.2224 49.5205V57H41.1042V47.4902H43.0993L43.2224 49.5205ZM42.8445 51.8936L42.1589 51.8848C42.1648 51.2109 42.2585 50.5928 42.4402 50.0303C42.6277 49.4678 42.8855 48.9844 43.2136 48.5801C43.5476 48.1758 43.946 47.8652 44.4089 47.6484C44.8718 47.4258 45.3874 47.3145 45.9558 47.3145C46.4128 47.3145 46.8259 47.3789 47.195 47.5078C47.57 47.6309 47.8894 47.833 48.153 48.1143C48.4226 48.3955 48.6277 48.7617 48.7683 49.2129C48.9089 49.6582 48.9792 50.2061 48.9792 50.8564V57H46.8523V50.8477C46.8523 50.3906 46.7849 50.0303 46.6501 49.7666C46.5212 49.4971 46.3308 49.3066 46.0788 49.1953C45.8327 49.0781 45.5251 49.0195 45.156 49.0195C44.7927 49.0195 44.4675 49.0957 44.1804 49.248C43.8933 49.4004 43.6501 49.6084 43.4509 49.8721C43.2575 50.1357 43.1081 50.4404 43.0027 50.7861C42.8972 51.1318 42.8445 51.501 42.8445 51.8936ZM57.5921 47.4902H59.517V56.7363C59.517 57.5918 59.3353 58.3184 58.972 58.916C58.6087 59.5137 58.1019 59.9678 57.4515 60.2783C56.8011 60.5947 56.0482 60.7529 55.1927 60.7529C54.8295 60.7529 54.4252 60.7002 53.9798 60.5947C53.5404 60.4893 53.1127 60.3193 52.6966 60.085C52.2865 59.8564 51.9437 59.5547 51.6683 59.1797L52.6615 57.9316C53.0013 58.3359 53.3763 58.6318 53.7865 58.8193C54.1966 59.0068 54.6273 59.1006 55.0785 59.1006C55.5648 59.1006 55.9779 59.0098 56.3177 58.8281C56.6634 58.6523 56.93 58.3916 57.1175 58.0459C57.305 57.7002 57.3988 57.2783 57.3988 56.7803V49.6436L57.5921 47.4902ZM51.1322 52.3506V52.166C51.1322 51.4453 51.2201 50.7891 51.3959 50.1973C51.5716 49.5996 51.8236 49.0869 52.1517 48.6592C52.4798 48.2256 52.8783 47.8945 53.347 47.666C53.8158 47.4316 54.3461 47.3145 54.9379 47.3145C55.5531 47.3145 56.0775 47.4258 56.5111 47.6484C56.9505 47.8711 57.3168 48.1904 57.6097 48.6064C57.9027 49.0166 58.1312 49.5088 58.2953 50.083C58.4652 50.6514 58.5912 51.2842 58.6732 51.9814V52.5703C58.597 53.25 58.4681 53.8711 58.2865 54.4336C58.1048 54.9961 57.8646 55.4824 57.5658 55.8926C57.267 56.3027 56.8978 56.6191 56.4584 56.8418C56.0248 57.0645 55.5121 57.1758 54.9203 57.1758C54.3402 57.1758 53.8158 57.0557 53.347 56.8154C52.8841 56.5752 52.4857 56.2383 52.1517 55.8047C51.8236 55.3711 51.5716 54.8613 51.3959 54.2754C51.2201 53.6836 51.1322 53.042 51.1322 52.3506ZM53.2504 52.166V52.3506C53.2504 52.7842 53.2914 53.1885 53.3734 53.5635C53.4613 53.9385 53.5931 54.2695 53.7689 54.5566C53.9505 54.8379 54.1791 55.0605 54.4545 55.2246C54.7357 55.3828 55.0668 55.4619 55.4476 55.4619C55.9457 55.4619 56.3529 55.3564 56.6693 55.1455C56.9916 54.9346 57.2377 54.6504 57.4076 54.293C57.5834 53.9297 57.7064 53.5254 57.7767 53.0801V51.4893C57.7416 51.1436 57.6683 50.8213 57.557 50.5225C57.4515 50.2236 57.308 49.9629 57.1263 49.7402C56.9447 49.5117 56.7162 49.3359 56.4408 49.2129C56.1654 49.084 55.8402 49.0195 55.4652 49.0195C55.0843 49.0195 54.7533 49.1016 54.472 49.2656C54.1908 49.4297 53.9593 49.6553 53.7777 49.9424C53.6019 50.2295 53.4701 50.5635 53.3822 50.9443C53.2943 51.3252 53.2504 51.7324 53.2504 52.166ZM64.3418 43.5V57H62.2148V43.5H64.3418ZM69.2897 47.4902V57H67.1627V47.4902H69.2897ZM67.0221 44.9941C67.0221 44.6719 67.1276 44.4053 67.3385 44.1943C67.5553 43.9775 67.8541 43.8691 68.235 43.8691C68.61 43.8691 68.9059 43.9775 69.1227 44.1943C69.3395 44.4053 69.4479 44.6719 69.4479 44.9941C69.4479 45.3105 69.3395 45.5742 69.1227 45.7852C68.9059 45.9961 68.61 46.1016 68.235 46.1016C67.8541 46.1016 67.5553 45.9961 67.3385 45.7852C67.1276 45.5742 67.0221 45.3105 67.0221 44.9941ZM77.305 54.4248C77.305 54.2139 77.2522 54.0234 77.1468 53.8535C77.0413 53.6777 76.8391 53.5195 76.5403 53.3789C76.2473 53.2383 75.8138 53.1094 75.2395 52.9922C74.7356 52.8809 74.2727 52.749 73.8509 52.5967C73.4348 52.4385 73.0774 52.248 72.7786 52.0254C72.4798 51.8027 72.2483 51.5391 72.0843 51.2344C71.9202 50.9297 71.8382 50.5781 71.8382 50.1797C71.8382 49.793 71.9231 49.4268 72.093 49.0811C72.263 48.7354 72.5061 48.4307 72.8225 48.167C73.1389 47.9033 73.5227 47.6953 73.9739 47.543C74.4309 47.3906 74.9407 47.3145 75.5032 47.3145C76.3001 47.3145 76.9827 47.4492 77.5511 47.7188C78.1253 47.9824 78.5647 48.3428 78.8694 48.7998C79.1741 49.251 79.3264 49.7607 79.3264 50.3291H77.2083C77.2083 50.0771 77.1438 49.8428 77.0149 49.626C76.8919 49.4033 76.7044 49.2246 76.4524 49.0898C76.2005 48.9492 75.8841 48.8789 75.5032 48.8789C75.1399 48.8789 74.8382 48.9375 74.5979 49.0547C74.3636 49.166 74.1878 49.3125 74.0706 49.4941C73.9593 49.6758 73.9036 49.875 73.9036 50.0918C73.9036 50.25 73.9329 50.3936 73.9915 50.5225C74.0559 50.6455 74.1614 50.7598 74.3079 50.8652C74.4544 50.9648 74.6536 51.0586 74.9055 51.1465C75.1634 51.2344 75.4856 51.3193 75.8723 51.4014C76.5989 51.5537 77.2229 51.75 77.7444 51.9902C78.2718 52.2246 78.6761 52.5293 78.9573 52.9043C79.2386 53.2734 79.3792 53.7422 79.3792 54.3105C79.3792 54.7324 79.2884 55.1191 79.1067 55.4707C78.9309 55.8164 78.6731 56.1182 78.3333 56.376C77.9934 56.6279 77.5862 56.8242 77.1116 56.9648C76.6429 57.1055 76.1155 57.1758 75.5296 57.1758C74.6682 57.1758 73.9388 57.0234 73.3411 56.7188C72.7434 56.4082 72.2893 56.0127 71.9788 55.5322C71.6741 55.0459 71.5218 54.542 71.5218 54.0205H73.5696C73.593 54.4131 73.7014 54.7266 73.8948 54.9609C74.094 55.1895 74.3401 55.3564 74.6331 55.4619C74.9319 55.5615 75.2395 55.6113 75.5559 55.6113C75.9368 55.6113 76.2561 55.5615 76.5139 55.4619C76.7718 55.3564 76.968 55.2158 77.1028 55.04C77.2376 54.8584 77.305 54.6533 77.305 54.4248ZM83.6855 43.5V57H81.5761V43.5H83.6855ZM83.3163 51.8936L82.6308 51.8848C82.6366 51.2285 82.7275 50.6221 82.9032 50.0654C83.0849 49.5088 83.3368 49.0254 83.6591 48.6152C83.9872 48.1992 84.3798 47.8799 84.8368 47.6572C85.2939 47.4287 85.8007 47.3145 86.3573 47.3145C86.8261 47.3145 87.248 47.3789 87.623 47.5078C88.0038 47.6367 88.332 47.8447 88.6073 48.1318C88.8827 48.4131 89.0907 48.7822 89.2314 49.2393C89.3779 49.6904 89.4511 50.2412 89.4511 50.8916V57H87.3241V50.874C87.3241 50.417 87.2568 50.0537 87.122 49.7842C86.9931 49.5146 86.8027 49.3213 86.5507 49.2041C86.2988 49.0811 85.9911 49.0195 85.6279 49.0195C85.247 49.0195 84.9101 49.0957 84.6171 49.248C84.33 49.4004 84.0898 49.6084 83.8964 49.8721C83.703 50.1357 83.5566 50.4404 83.457 50.7861C83.3632 51.1318 83.3163 51.501 83.3163 51.8936Z" fill="black"/>
<path d="M52.0772 65.2031V66.1172L46.7774 78H45.0635L50.3545 66.5391H43.4287V65.2031H52.0772ZM56.3483 71.9092L55.0475 71.5752L55.6891 65.2031H62.2546V66.7061H57.069L56.6823 70.1865C56.9167 70.0518 57.2126 69.9258 57.57 69.8086C57.9333 69.6914 58.3493 69.6328 58.818 69.6328C59.4098 69.6328 59.9401 69.7354 60.4089 69.9404C60.8776 70.1396 61.2761 70.4268 61.6042 70.8018C61.9382 71.1768 62.193 71.6279 62.3688 72.1553C62.5446 72.6826 62.6325 73.2715 62.6325 73.9219C62.6325 74.5371 62.5475 75.1025 62.3776 75.6182C62.2136 76.1338 61.9645 76.585 61.6305 76.9717C61.2966 77.3525 60.8747 77.6484 60.3649 77.8594C59.861 78.0703 59.2663 78.1758 58.5807 78.1758C58.0651 78.1758 57.5759 78.1055 57.113 77.9648C56.6559 77.8184 56.2458 77.5986 55.8825 77.3057C55.5251 77.0068 55.2321 76.6377 55.0036 76.1982C54.7809 75.7529 54.6403 75.2314 54.5817 74.6338H56.1286C56.1989 75.1143 56.3395 75.5186 56.5505 75.8467C56.7614 76.1748 57.0368 76.4238 57.3766 76.5938C57.7223 76.7578 58.1237 76.8398 58.5807 76.8398C58.9675 76.8398 59.3102 76.7725 59.6091 76.6377C59.9079 76.5029 60.1598 76.3096 60.3649 76.0576C60.57 75.8057 60.7253 75.501 60.8307 75.1436C60.9421 74.7861 60.9977 74.3848 60.9977 73.9395C60.9977 73.5352 60.9421 73.1602 60.8307 72.8145C60.7194 72.4688 60.5524 72.167 60.3298 71.9092C60.113 71.6514 59.8464 71.4521 59.53 71.3115C59.2136 71.165 58.8503 71.0918 58.4401 71.0918C57.8952 71.0918 57.4821 71.165 57.2009 71.3115C56.9255 71.458 56.6413 71.6572 56.3483 71.9092ZM64.6361 68.3408V67.6641C64.6361 67.1777 64.7415 66.7354 64.9525 66.3369C65.1634 65.9385 65.4652 65.6191 65.8577 65.3789C66.2503 65.1387 66.7161 65.0186 67.2552 65.0186C67.806 65.0186 68.2747 65.1387 68.6614 65.3789C69.054 65.6191 69.3558 65.9385 69.5667 66.3369C69.7777 66.7354 69.8831 67.1777 69.8831 67.6641V68.3408C69.8831 68.8154 69.7777 69.252 69.5667 69.6504C69.3616 70.0488 69.0628 70.3682 68.6702 70.6084C68.2835 70.8486 67.8177 70.9688 67.2728 70.9688C66.7278 70.9688 66.2562 70.8486 65.8577 70.6084C65.4652 70.3682 65.1634 70.0488 64.9525 69.6504C64.7415 69.252 64.6361 68.8154 64.6361 68.3408ZM65.8577 67.6641V68.3408C65.8577 68.6104 65.9075 68.8652 66.0071 69.1055C66.1126 69.3457 66.2708 69.542 66.4818 69.6943C66.6927 69.8408 66.9564 69.9141 67.2728 69.9141C67.5892 69.9141 67.8499 69.8408 68.055 69.6943C68.2601 69.542 68.4124 69.3457 68.512 69.1055C68.6116 68.8652 68.6614 68.6104 68.6614 68.3408V67.6641C68.6614 67.3887 68.6087 67.1309 68.5032 66.8906C68.4036 66.6445 68.2484 66.4482 68.0374 66.3018C67.8323 66.1494 67.5716 66.0732 67.2552 66.0732C66.9446 66.0732 66.6839 66.1494 66.473 66.3018C66.2679 66.4482 66.1126 66.6445 66.0071 66.8906C65.9075 67.1309 65.8577 67.3887 65.8577 67.6641ZM70.8675 75.5479V74.8623C70.8675 74.3818 70.973 73.9424 71.1839 73.5439C71.3948 73.1455 71.6966 72.8262 72.0892 72.5859C72.4818 72.3457 72.9476 72.2256 73.4866 72.2256C74.0374 72.2256 74.5062 72.3457 74.8929 72.5859C75.2855 72.8262 75.5872 73.1455 75.7982 73.5439C76.0091 73.9424 76.1146 74.3818 76.1146 74.8623V75.5479C76.1146 76.0283 76.0091 76.4678 75.7982 76.8662C75.5931 77.2646 75.2943 77.584 74.9017 77.8242C74.515 78.0645 74.0491 78.1846 73.5042 78.1846C72.9593 78.1846 72.4905 78.0645 72.098 77.8242C71.7054 77.584 71.4007 77.2646 71.1839 76.8662C70.973 76.4678 70.8675 76.0283 70.8675 75.5479ZM72.0892 74.8623V75.5479C72.0892 75.8174 72.139 76.0752 72.2386 76.3213C72.3441 76.5615 72.5023 76.7578 72.7132 76.9102C72.9241 77.0566 73.1878 77.1299 73.5042 77.1299C73.8206 77.1299 74.0814 77.0566 74.2864 76.9102C74.4974 76.7578 74.6527 76.5615 74.7523 76.3213C74.8519 76.0811 74.9017 75.8232 74.9017 75.5479V74.8623C74.9017 74.5869 74.8489 74.3291 74.7435 74.0889C74.6439 73.8486 74.4886 73.6553 74.2777 73.5088C74.0726 73.3564 73.8089 73.2803 73.4866 73.2803C73.1761 73.2803 72.9153 73.3564 72.7044 73.5088C72.4993 73.6553 72.3441 73.8486 72.2386 74.0889C72.139 74.3291 72.0892 74.5869 72.0892 74.8623ZM73.8909 67.0225L67.6419 77.0244L66.7278 76.4443L72.9769 66.4424L73.8909 67.0225Z" fill="black"/>
</svg>
