<svg width="120" height="120" viewBox="0 0 120 120" fill="none" xmlns="http://www.w3.org/2000/svg">
<mask id="path-1-inside-1_1_36" fill="white">
<path d="M60 0C71.3993 1.35935e-07 82.5627 3.2473 92.1833 9.36174C101.804 15.4762 109.484 24.2047 114.324 34.5256C119.163 44.8464 120.963 56.3324 119.512 67.6389C118.06 78.9454 113.418 89.6045 106.129 98.3684L104.427 96.9527C111.447 88.5122 115.918 78.2463 117.316 67.357C118.714 56.4677 116.98 45.4056 112.319 35.4656C107.658 25.5256 100.261 17.1191 90.9958 11.2303C81.7301 5.34144 70.9787 2.21396 60 2.21396V0Z"/>
</mask>
<path d="M60 0C71.3993 1.35935e-07 82.5627 3.2473 92.1833 9.36174C101.804 15.4762 109.484 24.2047 114.324 34.5256C119.163 44.8464 120.963 56.3324 119.512 67.6389C118.06 78.9454 113.418 89.6045 106.129 98.3684L104.427 96.9527C111.447 88.5122 115.918 78.2463 117.316 67.357C118.714 56.4677 116.98 45.4056 112.319 35.4656C107.658 25.5256 100.261 17.1191 90.9958 11.2303C81.7301 5.34144 70.9787 2.21396 60 2.21396V0Z" stroke="#1A1A1A" stroke-width="4" mask="url(#path-1-inside-1_1_36)"/>
<path d="M40.2475 51.2275H36.9164V49.4785H40.2475C40.8275 49.4785 41.2963 49.3848 41.6537 49.1973C42.0111 49.0098 42.2719 48.752 42.4359 48.4238C42.6059 48.0898 42.6908 47.709 42.6908 47.2812C42.6908 46.877 42.6059 46.499 42.4359 46.1475C42.2719 45.79 42.0111 45.5029 41.6537 45.2861C41.2963 45.0693 40.8275 44.9609 40.2475 44.9609H37.5932V56H35.3871V43.2031H40.2475C41.2377 43.2031 42.0785 43.3789 42.7699 43.7305C43.4672 44.0762 43.9975 44.5566 44.3607 45.1719C44.724 45.7812 44.9057 46.4785 44.9057 47.2637C44.9057 48.0898 44.724 48.7988 44.3607 49.3906C43.9975 49.9824 43.4672 50.4365 42.7699 50.7529C42.0785 51.0693 41.2377 51.2275 40.2475 51.2275ZM46.5049 51.3506V51.1484C46.5049 50.4629 46.6045 49.8271 46.8038 49.2412C47.003 48.6494 47.2901 48.1367 47.6651 47.7031C48.0459 47.2637 48.5088 46.9238 49.0538 46.6836C49.6045 46.4375 50.2256 46.3145 50.917 46.3145C51.6143 46.3145 52.2354 46.4375 52.7803 46.6836C53.3311 46.9238 53.7969 47.2637 54.1778 47.7031C54.5586 48.1367 54.8487 48.6494 55.0479 49.2412C55.2471 49.8271 55.3467 50.4629 55.3467 51.1484V51.3506C55.3467 52.0361 55.2471 52.6719 55.0479 53.2578C54.8487 53.8438 54.5586 54.3564 54.1778 54.7959C53.7969 55.2295 53.334 55.5693 52.7891 55.8154C52.2442 56.0557 51.626 56.1758 50.9346 56.1758C50.2373 56.1758 49.6133 56.0557 49.0625 55.8154C48.5176 55.5693 48.0547 55.2295 47.6739 54.7959C47.293 54.3564 47.003 53.8438 46.8038 53.2578C46.6045 52.6719 46.5049 52.0361 46.5049 51.3506ZM48.6231 51.1484V51.3506C48.6231 51.7783 48.667 52.1826 48.7549 52.5635C48.8428 52.9443 48.9805 53.2783 49.168 53.5654C49.3555 53.8525 49.5957 54.0781 49.8887 54.2422C50.1817 54.4062 50.5303 54.4883 50.9346 54.4883C51.3272 54.4883 51.667 54.4062 51.9541 54.2422C52.2471 54.0781 52.4873 53.8525 52.6748 53.5654C52.8623 53.2783 53 52.9443 53.0879 52.5635C53.1817 52.1826 53.2286 51.7783 53.2286 51.3506V51.1484C53.2286 50.7266 53.1817 50.3281 53.0879 49.9531C53 49.5723 52.8594 49.2354 52.6661 48.9424C52.4786 48.6494 52.2383 48.4209 51.9454 48.2568C51.6582 48.0869 51.3155 48.002 50.917 48.002C50.5186 48.002 50.1729 48.0869 49.8799 48.2568C49.5928 48.4209 49.3555 48.6494 49.168 48.9424C48.9805 49.2354 48.8428 49.5723 48.7549 49.9531C48.667 50.3281 48.6231 50.7266 48.6231 51.1484ZM59.7497 42.5V56H57.6227V42.5H59.7497ZM64.6976 46.4902V56H62.5706V46.4902H64.6976ZM62.43 43.9941C62.43 43.6719 62.5355 43.4053 62.7464 43.1943C62.9632 42.9775 63.262 42.8691 63.6429 42.8691C64.0179 42.8691 64.3138 42.9775 64.5306 43.1943C64.7474 43.4053 64.8558 43.6719 64.8558 43.9941C64.8558 44.3105 64.7474 44.5742 64.5306 44.7852C64.3138 44.9961 64.0179 45.1016 63.6429 45.1016C63.262 45.1016 62.9632 44.9961 62.7464 44.7852C62.5355 44.5742 62.43 44.3105 62.43 43.9941ZM72.7129 53.4248C72.7129 53.2139 72.6601 53.0234 72.5546 52.8535C72.4492 52.6777 72.247 52.5195 71.9482 52.3789C71.6552 52.2383 71.2216 52.1094 70.6474 51.9922C70.1435 51.8809 69.6806 51.749 69.2588 51.5967C68.8427 51.4385 68.4853 51.248 68.1865 51.0254C67.8877 50.8027 67.6562 50.5391 67.4921 50.2344C67.3281 49.9297 67.2461 49.5781 67.2461 49.1797C67.2461 48.793 67.331 48.4268 67.5009 48.0811C67.6709 47.7354 67.914 47.4307 68.2304 47.167C68.5468 46.9033 68.9306 46.6953 69.3818 46.543C69.8388 46.3906 70.3486 46.3145 70.9111 46.3145C71.708 46.3145 72.3906 46.4492 72.9589 46.7188C73.5332 46.9824 73.9726 47.3428 74.2773 47.7998C74.582 48.251 74.7343 48.7607 74.7343 49.3291H72.6162C72.6162 49.0771 72.5517 48.8428 72.4228 48.626C72.2998 48.4033 72.1123 48.2246 71.8603 48.0898C71.6084 47.9492 71.292 47.8789 70.9111 47.8789C70.5478 47.8789 70.2461 47.9375 70.0058 48.0547C69.7714 48.166 69.5957 48.3125 69.4785 48.4941C69.3671 48.6758 69.3115 48.875 69.3115 49.0918C69.3115 49.25 69.3408 49.3936 69.3994 49.5225C69.4638 49.6455 69.5693 49.7598 69.7158 49.8652C69.8623 49.9648 70.0615 50.0586 70.3134 50.1465C70.5713 50.2344 70.8935 50.3193 71.2802 50.4014C72.0068 50.5537 72.6308 50.75 73.1523 50.9902C73.6796 51.2246 74.0839 51.5293 74.3652 51.9043C74.6464 52.2734 74.7871 52.7422 74.7871 53.3105C74.7871 53.7324 74.6963 54.1191 74.5146 54.4707C74.3388 54.8164 74.081 55.1182 73.7412 55.376C73.4013 55.6279 72.9941 55.8242 72.5195 55.9648C72.0507 56.1055 71.5234 56.1758 70.9375 56.1758C70.0761 56.1758 69.3466 56.0234 68.749 55.7188C68.1513 55.4082 67.6972 55.0127 67.3867 54.5322C67.082 54.0459 66.9296 53.542 66.9296 53.0205H68.9775C69.0009 53.4131 69.1093 53.7266 69.3027 53.9609C69.5019 54.1895 69.748 54.3564 70.041 54.4619C70.3398 54.5615 70.6474 54.6113 70.9638 54.6113C71.3447 54.6113 71.664 54.5615 71.9218 54.4619C72.1796 54.3564 72.3759 54.2158 72.5107 54.04C72.6455 53.8584 72.7129 53.6533 72.7129 53.4248ZM79.0934 42.5V56H76.984V42.5H79.0934ZM78.7242 50.8936L78.0387 50.8848C78.0445 50.2285 78.1354 49.6221 78.3111 49.0654C78.4928 48.5088 78.7447 48.0254 79.067 47.6152C79.3951 47.1992 79.7877 46.8799 80.2447 46.6572C80.7018 46.4287 81.2086 46.3145 81.7652 46.3145C82.234 46.3145 82.6559 46.3789 83.0309 46.5078C83.4117 46.6367 83.7398 46.8447 84.0152 47.1318C84.2906 47.4131 84.4986 47.7822 84.6393 48.2393C84.7857 48.6904 84.859 49.2412 84.859 49.8916V56H82.732V49.874C82.732 49.417 82.6646 49.0537 82.5299 48.7842C82.401 48.5146 82.2105 48.3213 81.9586 48.2041C81.7066 48.0811 81.399 48.0195 81.0357 48.0195C80.6549 48.0195 80.318 48.0957 80.025 48.248C79.7379 48.4004 79.4977 48.6084 79.3043 48.8721C79.1109 49.1357 78.9645 49.4404 78.8648 49.7861C78.7711 50.1318 78.7242 50.501 78.7242 50.8936Z" fill="black"/>
<path d="M46.1797 69.8018H47.3399C47.9082 69.8018 48.377 69.708 48.7461 69.5205C49.1211 69.3271 49.3995 69.0664 49.5811 68.7383C49.7686 68.4043 49.8623 68.0293 49.8623 67.6133C49.8623 67.1211 49.7803 66.708 49.6162 66.374C49.4522 66.04 49.2061 65.7881 48.878 65.6182C48.5498 65.4482 48.1338 65.3633 47.6299 65.3633C47.1729 65.3633 46.7686 65.4541 46.417 65.6357C46.0713 65.8115 45.7989 66.0635 45.5996 66.3916C45.4063 66.7197 45.3096 67.1064 45.3096 67.5518H43.6836C43.6836 66.9014 43.8477 66.3096 44.1758 65.7764C44.5039 65.2432 44.9639 64.8184 45.5557 64.502C46.1534 64.1855 46.8448 64.0273 47.6299 64.0273C48.4034 64.0273 49.0801 64.165 49.6602 64.4404C50.2403 64.71 50.6914 65.1143 51.0137 65.6533C51.336 66.1865 51.4971 66.8516 51.4971 67.6484C51.4971 67.9707 51.4209 68.3164 51.2686 68.6855C51.1221 69.0488 50.8907 69.3887 50.5743 69.7051C50.2637 70.0215 49.8594 70.2822 49.3614 70.4873C48.8633 70.6865 48.2657 70.7861 47.5684 70.7861H46.1797V69.8018ZM46.1797 71.1377V70.1621H47.5684C48.3829 70.1621 49.0567 70.2588 49.5899 70.4521C50.1231 70.6455 50.542 70.9033 50.8467 71.2256C51.1573 71.5479 51.3741 71.9023 51.4971 72.2891C51.626 72.6699 51.6905 73.0508 51.6905 73.4316C51.6905 74.0293 51.5879 74.5596 51.3829 75.0225C51.1836 75.4854 50.8995 75.8779 50.5303 76.2002C50.167 76.5225 49.7393 76.7656 49.2471 76.9297C48.7549 77.0938 48.2188 77.1758 47.6387 77.1758C47.0821 77.1758 46.5577 77.0967 46.0655 76.9385C45.5791 76.7803 45.1485 76.5518 44.7735 76.2529C44.3985 75.9482 44.1055 75.5762 43.8946 75.1367C43.6836 74.6914 43.5782 74.1846 43.5782 73.6162H45.2041C45.2041 74.0615 45.3008 74.4512 45.4942 74.7852C45.6934 75.1191 45.9746 75.3799 46.3379 75.5674C46.7071 75.749 47.1407 75.8398 47.6387 75.8398C48.1368 75.8398 48.5645 75.7549 48.9219 75.585C49.2852 75.4092 49.5635 75.1455 49.7569 74.7939C49.9561 74.4424 50.0557 74 50.0557 73.4668C50.0557 72.9336 49.9444 72.4971 49.7217 72.1572C49.4991 71.8115 49.1827 71.5566 48.7725 71.3926C48.3682 71.2227 47.8907 71.1377 47.3399 71.1377H46.1797ZM56.3483 70.9092L55.0475 70.5752L55.6891 64.2031H62.2546V65.7061H57.069L56.6823 69.1865C56.9167 69.0518 57.2126 68.9258 57.57 68.8086C57.9333 68.6914 58.3493 68.6328 58.818 68.6328C59.4098 68.6328 59.9401 68.7354 60.4089 68.9404C60.8776 69.1396 61.2761 69.4268 61.6042 69.8018C61.9382 70.1768 62.193 70.6279 62.3688 71.1553C62.5446 71.6826 62.6325 72.2715 62.6325 72.9219C62.6325 73.5371 62.5475 74.1025 62.3776 74.6182C62.2136 75.1338 61.9645 75.585 61.6305 75.9717C61.2966 76.3525 60.8747 76.6484 60.3649 76.8594C59.861 77.0703 59.2663 77.1758 58.5807 77.1758C58.0651 77.1758 57.5759 77.1055 57.113 76.9648C56.6559 76.8184 56.2458 76.5986 55.8825 76.3057C55.5251 76.0068 55.2321 75.6377 55.0036 75.1982C54.7809 74.7529 54.6403 74.2314 54.5817 73.6338H56.1286C56.1989 74.1143 56.3395 74.5186 56.5505 74.8467C56.7614 75.1748 57.0368 75.4238 57.3766 75.5938C57.7223 75.7578 58.1237 75.8398 58.5807 75.8398C58.9675 75.8398 59.3102 75.7725 59.6091 75.6377C59.9079 75.5029 60.1598 75.3096 60.3649 75.0576C60.57 74.8057 60.7253 74.501 60.8307 74.1436C60.9421 73.7861 60.9977 73.3848 60.9977 72.9395C60.9977 72.5352 60.9421 72.1602 60.8307 71.8145C60.7194 71.4688 60.5524 71.167 60.3298 70.9092C60.113 70.6514 59.8464 70.4521 59.53 70.3115C59.2136 70.165 58.8503 70.0918 58.4401 70.0918C57.8952 70.0918 57.4821 70.165 57.2009 70.3115C56.9255 70.458 56.6413 70.6572 56.3483 70.9092ZM64.6361 67.3408V66.6641C64.6361 66.1777 64.7415 65.7354 64.9525 65.3369C65.1634 64.9385 65.4652 64.6191 65.8577 64.3789C66.2503 64.1387 66.7161 64.0186 67.2552 64.0186C67.806 64.0186 68.2747 64.1387 68.6614 64.3789C69.054 64.6191 69.3558 64.9385 69.5667 65.3369C69.7777 65.7354 69.8831 66.1777 69.8831 66.6641V67.3408C69.8831 67.8154 69.7777 68.252 69.5667 68.6504C69.3616 69.0488 69.0628 69.3682 68.6702 69.6084C68.2835 69.8486 67.8177 69.9688 67.2728 69.9688C66.7278 69.9688 66.2562 69.8486 65.8577 69.6084C65.4652 69.3682 65.1634 69.0488 64.9525 68.6504C64.7415 68.252 64.6361 67.8154 64.6361 67.3408ZM65.8577 66.6641V67.3408C65.8577 67.6104 65.9075 67.8652 66.0071 68.1055C66.1126 68.3457 66.2708 68.542 66.4818 68.6943C66.6927 68.8408 66.9564 68.9141 67.2728 68.9141C67.5892 68.9141 67.8499 68.8408 68.055 68.6943C68.2601 68.542 68.4124 68.3457 68.512 68.1055C68.6116 67.8652 68.6614 67.6104 68.6614 67.3408V66.6641C68.6614 66.3887 68.6087 66.1309 68.5032 65.8906C68.4036 65.6445 68.2484 65.4482 68.0374 65.3018C67.8323 65.1494 67.5716 65.0732 67.2552 65.0732C66.9446 65.0732 66.6839 65.1494 66.473 65.3018C66.2679 65.4482 66.1126 65.6445 66.0071 65.8906C65.9075 66.1309 65.8577 66.3887 65.8577 66.6641ZM70.8675 74.5479V73.8623C70.8675 73.3818 70.973 72.9424 71.1839 72.5439C71.3948 72.1455 71.6966 71.8262 72.0892 71.5859C72.4818 71.3457 72.9476 71.2256 73.4866 71.2256C74.0374 71.2256 74.5062 71.3457 74.8929 71.5859C75.2855 71.8262 75.5872 72.1455 75.7982 72.5439C76.0091 72.9424 76.1146 73.3818 76.1146 73.8623V74.5479C76.1146 75.0283 76.0091 75.4678 75.7982 75.8662C75.5931 76.2646 75.2943 76.584 74.9017 76.8242C74.515 77.0645 74.0491 77.1846 73.5042 77.1846C72.9593 77.1846 72.4905 77.0645 72.098 76.8242C71.7054 76.584 71.4007 76.2646 71.1839 75.8662C70.973 75.4678 70.8675 75.0283 70.8675 74.5479ZM72.0892 73.8623V74.5479C72.0892 74.8174 72.139 75.0752 72.2386 75.3213C72.3441 75.5615 72.5023 75.7578 72.7132 75.9102C72.9241 76.0566 73.1878 76.1299 73.5042 76.1299C73.8206 76.1299 74.0814 76.0566 74.2864 75.9102C74.4974 75.7578 74.6527 75.5615 74.7523 75.3213C74.8519 75.0811 74.9017 74.8232 74.9017 74.5479V73.8623C74.9017 73.5869 74.8489 73.3291 74.7435 73.0889C74.6439 72.8486 74.4886 72.6553 74.2777 72.5088C74.0726 72.3564 73.8089 72.2803 73.4866 72.2803C73.1761 72.2803 72.9153 72.3564 72.7044 72.5088C72.4993 72.6553 72.3441 72.8486 72.2386 73.0889C72.139 73.3291 72.0892 73.5869 72.0892 73.8623ZM73.8909 66.0225L67.6419 76.0244L66.7278 75.4443L72.9769 65.4424L73.8909 66.0225Z" fill="black"/>
</svg>
