<svg width="120" height="120" viewBox="0 0 120 120" fill="none" xmlns="http://www.w3.org/2000/svg">
<circle cx="60" cy="60" r="59" stroke="#1A1A1A" stroke-width="2"/>
<path d="M29.9454 44.2031H32.1427V52.7549C32.1427 53.7275 31.9318 54.542 31.5099 55.1982C31.088 55.8545 30.5138 56.3496 29.7872 56.6836C29.0665 57.0117 28.2609 57.1758 27.3702 57.1758C26.4503 57.1758 25.63 57.0117 24.9093 56.6836C24.1886 56.3496 23.6202 55.8545 23.2042 55.1982C22.7941 54.542 22.589 53.7275 22.589 52.7549V44.2031H24.7863V52.7549C24.7863 53.3701 24.8917 53.877 25.1027 54.2754C25.3136 54.668 25.6124 54.958 25.9991 55.1455C26.3859 55.333 26.8429 55.4268 27.3702 55.4268C27.8976 55.4268 28.3517 55.333 28.7325 55.1455C29.1193 54.958 29.4181 54.668 29.629 54.2754C29.84 53.877 29.9454 53.3701 29.9454 52.7549V44.2031ZM36.8269 43.5V57H34.7V43.5H36.8269ZM42.7332 47.4902L38.5935 52.0781L36.3259 54.3984L35.7722 52.6055L37.4861 50.4873L40.1755 47.4902H42.7332ZM40.6326 57L37.5476 52.5352L38.8836 51.0498L43.0847 57H40.6326ZM46.5648 49.3008V57H44.4467V47.4902H46.4682L46.5648 49.3008ZM49.474 47.4287L49.4564 49.3975C49.3275 49.374 49.1869 49.3564 49.0346 49.3447C48.8881 49.333 48.7416 49.3271 48.5951 49.3271C48.2318 49.3271 47.9125 49.3799 47.6371 49.4854C47.3617 49.585 47.1303 49.7314 46.9428 49.9248C46.7611 50.1123 46.6205 50.3408 46.5209 50.6104C46.4213 50.8799 46.3627 51.1816 46.3451 51.5156L45.8617 51.5508C45.8617 50.9531 45.9203 50.3994 46.0375 49.8896C46.1547 49.3799 46.3305 48.9316 46.5648 48.5449C46.8051 48.1582 47.1039 47.8564 47.4613 47.6396C47.8246 47.4229 48.2436 47.3145 48.7182 47.3145C48.8471 47.3145 48.9848 47.3262 49.1313 47.3496C49.2836 47.373 49.3979 47.3994 49.474 47.4287ZM56.2061 55.0928V50.5576C56.2061 50.2178 56.1446 49.9248 56.0215 49.6787C55.8985 49.4326 55.711 49.2422 55.459 49.1074C55.2129 48.9727 54.9024 48.9053 54.5274 48.9053C54.1817 48.9053 53.8829 48.9639 53.6309 49.0811C53.3789 49.1982 53.1827 49.3564 53.042 49.5557C52.9014 49.7549 52.8311 49.9805 52.8311 50.2324H50.7217C50.7217 49.8574 50.8125 49.4941 50.9942 49.1426C51.1758 48.791 51.4395 48.4775 51.7852 48.2021C52.1309 47.9268 52.544 47.71 53.0245 47.5518C53.5049 47.3936 54.044 47.3145 54.6416 47.3145C55.3565 47.3145 55.9893 47.4346 56.5401 47.6748C57.0967 47.915 57.5332 48.2783 57.8496 48.7646C58.1719 49.2451 58.333 49.8486 58.333 50.5752V54.8027C58.333 55.2363 58.3623 55.626 58.4209 55.9717C58.4854 56.3115 58.5762 56.6074 58.6934 56.8594V57H56.5225C56.4229 56.7715 56.3438 56.4814 56.2852 56.1299C56.2325 55.7725 56.2061 55.4268 56.2061 55.0928ZM56.5137 51.2168L56.5313 52.5264H55.0108C54.6182 52.5264 54.2725 52.5645 53.9737 52.6406C53.6748 52.7109 53.4258 52.8164 53.2266 52.957C53.0274 53.0977 52.878 53.2676 52.7784 53.4668C52.6788 53.666 52.6289 53.8916 52.6289 54.1436C52.6289 54.3955 52.6875 54.627 52.8047 54.8379C52.9219 55.043 53.0918 55.2041 53.3145 55.3213C53.543 55.4385 53.8184 55.4971 54.1407 55.4971C54.5743 55.4971 54.9522 55.4092 55.2745 55.2334C55.6026 55.0518 55.8604 54.832 56.0479 54.5742C56.2354 54.3105 56.335 54.0615 56.3467 53.8271L57.0323 54.7676C56.962 55.0078 56.8418 55.2656 56.6719 55.541C56.502 55.8164 56.2793 56.0801 56.0039 56.332C55.7344 56.5781 55.4092 56.7803 55.0284 56.9385C54.6534 57.0967 54.2198 57.1758 53.7276 57.1758C53.1065 57.1758 52.5528 57.0527 52.0664 56.8066C51.5801 56.5547 51.1993 56.2178 50.9239 55.7959C50.6485 55.3682 50.5108 54.8848 50.5108 54.3457C50.5108 53.8418 50.6045 53.3965 50.792 53.0098C50.9854 52.6172 51.2666 52.2891 51.6358 52.0254C52.0108 51.7617 52.4678 51.5625 53.0069 51.4277C53.5459 51.2871 54.1612 51.2168 54.8526 51.2168H56.5137ZM63.1755 47.4902V57H61.0485V47.4902H63.1755ZM60.9079 44.9941C60.9079 44.6719 61.0134 44.4053 61.2243 44.1943C61.4411 43.9775 61.7399 43.8691 62.1208 43.8691C62.4958 43.8691 62.7917 43.9775 63.0085 44.1943C63.2253 44.4053 63.3337 44.6719 63.3337 44.9941C63.3337 45.3105 63.2253 45.5742 63.0085 45.7852C62.7917 45.9961 62.4958 46.1016 62.1208 46.1016C61.7399 46.1016 61.4411 45.9961 61.2243 45.7852C61.0134 45.5742 60.9079 45.3105 60.9079 44.9941ZM67.9564 49.5205V57H65.8382V47.4902H67.8333L67.9564 49.5205ZM67.5784 51.8936L66.8929 51.8848C66.8988 51.2109 66.9925 50.5928 67.1741 50.0303C67.3616 49.4678 67.6195 48.9844 67.9476 48.5801C68.2816 48.1758 68.68 47.8652 69.1429 47.6484C69.6058 47.4258 70.1214 47.3145 70.6898 47.3145C71.1468 47.3145 71.5599 47.3789 71.929 47.5078C72.304 47.6309 72.6234 47.833 72.887 48.1143C73.1566 48.3955 73.3616 48.7617 73.5023 49.2129C73.6429 49.6582 73.7132 50.2061 73.7132 50.8564V57H71.5863V50.8477C71.5863 50.3906 71.5189 50.0303 71.3841 49.7666C71.2552 49.4971 71.0648 49.3066 70.8128 49.1953C70.5667 49.0781 70.2591 49.0195 69.89 49.0195C69.5267 49.0195 69.2015 49.0957 68.9144 49.248C68.6273 49.4004 68.3841 49.6084 68.1849 49.8721C67.9915 50.1357 67.8421 50.4404 67.7366 50.7861C67.6312 51.1318 67.5784 51.501 67.5784 51.8936ZM78.5029 47.4902V57H76.3759V47.4902H78.5029ZM76.2353 44.9941C76.2353 44.6719 76.3408 44.4053 76.5517 44.1943C76.7685 43.9775 77.0673 43.8691 77.4482 43.8691C77.8232 43.8691 78.1191 43.9775 78.3359 44.1943C78.5527 44.4053 78.6611 44.6719 78.6611 44.9941C78.6611 45.3105 78.5527 45.5742 78.3359 45.7852C78.1191 45.9961 77.8232 46.1016 77.4482 46.1016C77.0673 46.1016 76.7685 45.9961 76.5517 45.7852C76.3408 45.5742 76.2353 45.3105 76.2353 44.9941ZM86.5445 55.0928V50.5576C86.5445 50.2178 86.483 49.9248 86.36 49.6787C86.2369 49.4326 86.0494 49.2422 85.7975 49.1074C85.5514 48.9727 85.2408 48.9053 84.8658 48.9053C84.5201 48.9053 84.2213 48.9639 83.9693 49.0811C83.7174 49.1982 83.5211 49.3564 83.3805 49.5557C83.2398 49.7549 83.1695 49.9805 83.1695 50.2324H81.0602C81.0602 49.8574 81.151 49.4941 81.3326 49.1426C81.5143 48.791 81.7779 48.4775 82.1236 48.2021C82.4693 47.9268 82.8824 47.71 83.3629 47.5518C83.8434 47.3936 84.3824 47.3145 84.9801 47.3145C85.6949 47.3145 86.3277 47.4346 86.8785 47.6748C87.4352 47.915 87.8717 48.2783 88.1881 48.7646C88.5104 49.2451 88.6715 49.8486 88.6715 50.5752V54.8027C88.6715 55.2363 88.7008 55.626 88.7594 55.9717C88.8238 56.3115 88.9146 56.6074 89.0318 56.8594V57H86.8609C86.7613 56.7715 86.6822 56.4814 86.6236 56.1299C86.5709 55.7725 86.5445 55.4268 86.5445 55.0928ZM86.8521 51.2168L86.8697 52.5264H85.3492C84.9566 52.5264 84.6109 52.5645 84.3121 52.6406C84.0133 52.7109 83.7643 52.8164 83.565 52.957C83.3658 53.0977 83.2164 53.2676 83.1168 53.4668C83.0172 53.666 82.9674 53.8916 82.9674 54.1436C82.9674 54.3955 83.026 54.627 83.1432 54.8379C83.2604 55.043 83.4303 55.2041 83.6529 55.3213C83.8814 55.4385 84.1568 55.4971 84.4791 55.4971C84.9127 55.4971 85.2906 55.4092 85.6129 55.2334C85.941 55.0518 86.1988 54.832 86.3863 54.5742C86.5738 54.3105 86.6734 54.0615 86.6852 53.8271L87.3707 54.7676C87.3004 55.0078 87.1803 55.2656 87.0104 55.541C86.8404 55.8164 86.6178 56.0801 86.3424 56.332C86.0729 56.5781 85.7477 56.7803 85.3668 56.9385C84.9918 57.0967 84.5582 57.1758 84.066 57.1758C83.4449 57.1758 82.8912 57.0527 82.4049 56.8066C81.9186 56.5547 81.5377 56.2178 81.2623 55.7959C80.9869 55.3682 80.8492 54.8848 80.8492 54.3457C80.8492 53.8418 80.943 53.3965 81.1305 53.0098C81.3238 52.6172 81.6051 52.2891 81.9742 52.0254C82.3492 51.7617 82.8063 51.5625 83.3453 51.4277C83.8844 51.2871 84.4996 51.2168 85.191 51.2168H86.8521ZM93.3469 49.5205V57H91.2287V47.4902H93.2239L93.3469 49.5205ZM92.969 51.8936L92.2834 51.8848C92.2893 51.2109 92.383 50.5928 92.5647 50.0303C92.7522 49.4678 93.01 48.9844 93.3381 48.5801C93.6721 48.1758 94.0705 47.8652 94.5334 47.6484C94.9963 47.4258 95.5119 47.3145 96.0803 47.3145C96.5373 47.3145 96.9504 47.3789 97.3196 47.5078C97.6946 47.6309 98.0139 47.833 98.2776 48.1143C98.5471 48.3955 98.7522 48.7617 98.8928 49.2129C99.0334 49.6582 99.1037 50.2061 99.1037 50.8564V57H96.9768V50.8477C96.9768 50.3906 96.9094 50.0303 96.7746 49.7666C96.6457 49.4971 96.4553 49.3066 96.2034 49.1953C95.9573 49.0781 95.6496 49.0195 95.2805 49.0195C94.9172 49.0195 94.592 49.0957 94.3049 49.248C94.0178 49.4004 93.7746 49.6084 93.5754 49.8721C93.3821 50.1357 93.2327 50.4404 93.1272 50.7861C93.0217 51.1318 92.969 51.501 92.969 51.8936Z" fill="black"/>
<path d="M38.712 70.5205V78H37.086V68.4902H38.6241L38.712 70.5205ZM38.3253 72.8848L37.6485 72.8584C37.6544 72.208 37.7511 71.6074 37.9386 71.0566C38.1261 70.5 38.3897 70.0166 38.7296 69.6064C39.0694 69.1963 39.4737 68.8799 39.9425 68.6572C40.4171 68.4287 40.9415 68.3145 41.5157 68.3145C41.9845 68.3145 42.4063 68.3789 42.7813 68.5078C43.1563 68.6309 43.4757 68.8301 43.7393 69.1055C44.0089 69.3809 44.2139 69.7383 44.3546 70.1777C44.4952 70.6113 44.5655 71.1416 44.5655 71.7686V78H42.9307V71.751C42.9307 71.2529 42.8575 70.8545 42.711 70.5557C42.5645 70.251 42.3507 70.0312 42.0694 69.8965C41.7882 69.7559 41.4425 69.6855 41.0323 69.6855C40.628 69.6855 40.2589 69.7705 39.9249 69.9404C39.5968 70.1104 39.3126 70.3447 39.0723 70.6436C38.838 70.9424 38.6534 71.2852 38.5186 71.6719C38.3897 72.0527 38.3253 72.457 38.3253 72.8848ZM53.0027 76.374V71.4785C53.0027 71.1035 52.9265 70.7783 52.7741 70.5029C52.6277 70.2217 52.405 70.0049 52.1062 69.8525C51.8073 69.7002 51.4382 69.624 50.9987 69.624C50.5886 69.624 50.2282 69.6943 49.9177 69.835C49.613 69.9756 49.3728 70.1602 49.197 70.3887C49.0271 70.6172 48.9421 70.8633 48.9421 71.127H47.3161C47.3161 70.7871 47.404 70.4502 47.5798 70.1162C47.7556 69.7822 48.0075 69.4805 48.3357 69.2109C48.6696 68.9355 49.0681 68.7188 49.531 68.5605C49.9997 68.3965 50.5212 68.3145 51.0954 68.3145C51.7868 68.3145 52.3962 68.4316 52.9236 68.666C53.4568 68.9004 53.8728 69.2549 54.1716 69.7295C54.4763 70.1982 54.6286 70.7871 54.6286 71.4961V75.9258C54.6286 76.2422 54.655 76.5791 54.7077 76.9365C54.7663 77.2939 54.8513 77.6016 54.9626 77.8594V78H53.2663C53.1843 77.8125 53.1198 77.5635 53.073 77.2529C53.0261 76.9365 53.0027 76.6436 53.0027 76.374ZM53.2839 72.2344L53.3015 73.377H51.6579C51.195 73.377 50.782 73.415 50.4187 73.4912C50.0554 73.5615 49.7507 73.6699 49.5046 73.8164C49.2585 73.9629 49.071 74.1475 48.9421 74.3701C48.8132 74.5869 48.7487 74.8418 48.7487 75.1348C48.7487 75.4336 48.8161 75.7061 48.9509 75.9521C49.0857 76.1982 49.2878 76.3945 49.5573 76.541C49.8327 76.6816 50.1696 76.752 50.5681 76.752C51.0661 76.752 51.5056 76.6465 51.8864 76.4355C52.2673 76.2246 52.5691 75.9668 52.7917 75.6621C53.0202 75.3574 53.1433 75.0615 53.1609 74.7744L53.8552 75.5566C53.8142 75.8027 53.7029 76.0752 53.5212 76.374C53.3396 76.6729 53.0964 76.96 52.7917 77.2354C52.4929 77.5049 52.1355 77.7305 51.7195 77.9121C51.3093 78.0879 50.8464 78.1758 50.3308 78.1758C49.6862 78.1758 49.1208 78.0498 48.6345 77.7979C48.154 77.5459 47.779 77.209 47.5095 76.7871C47.2458 76.3594 47.114 75.8818 47.114 75.3545C47.114 74.8447 47.2136 74.3965 47.4128 74.0098C47.612 73.6172 47.8991 73.292 48.2741 73.0342C48.6491 72.7705 49.1003 72.5713 49.6277 72.4365C50.155 72.3018 50.7439 72.2344 51.3943 72.2344H53.2839ZM61.5277 68.4902V69.7383H56.3861V68.4902H61.5277ZM58.1263 66.1787H59.7523V75.6445C59.7523 75.9668 59.8021 76.21 59.9017 76.374C60.0013 76.5381 60.1302 76.6465 60.2884 76.6992C60.4466 76.752 60.6166 76.7783 60.7982 76.7783C60.933 76.7783 61.0736 76.7666 61.2201 76.7432C61.3724 76.7139 61.4867 76.6904 61.5629 76.6729L61.5716 78C61.4427 78.041 61.2728 78.0791 61.0619 78.1143C60.8568 78.1553 60.6078 78.1758 60.3148 78.1758C59.9164 78.1758 59.5502 78.0967 59.2162 77.9385C58.8822 77.7803 58.6156 77.5166 58.4164 77.1475C58.223 76.7725 58.1263 76.2686 58.1263 75.6357V66.1787ZM65.5615 68.4902V78H63.9268V68.4902H65.5615ZM63.8037 65.9678C63.8037 65.7041 63.8828 65.4814 64.041 65.2998C64.2051 65.1182 64.4453 65.0273 64.7617 65.0273C65.0723 65.0273 65.3096 65.1182 65.4736 65.2998C65.6436 65.4814 65.7285 65.7041 65.7285 65.9678C65.7285 66.2197 65.6436 66.4365 65.4736 66.6182C65.3096 66.7939 65.0723 66.8818 64.7617 66.8818C64.4453 66.8818 64.2051 66.7939 64.041 66.6182C63.8828 66.4365 63.8037 66.2197 63.8037 65.9678ZM71.4235 76.5322L74.025 68.4902H75.6862L72.2672 78H71.1774L71.4235 76.5322ZM69.2526 68.4902L71.9332 76.5762L72.1178 78H71.028L67.5827 68.4902H69.2526ZM81.4339 78.1758C80.7718 78.1758 80.1712 78.0645 79.6321 77.8418C79.0989 77.6133 78.6389 77.2939 78.2522 76.8838C77.8714 76.4736 77.5784 75.9873 77.3733 75.4248C77.1682 74.8623 77.0657 74.2471 77.0657 73.5791V73.21C77.0657 72.4365 77.18 71.748 77.4085 71.1445C77.637 70.5352 77.9475 70.0195 78.3401 69.5977C78.7327 69.1758 79.178 68.8564 79.6761 68.6396C80.1741 68.4229 80.6897 68.3145 81.2229 68.3145C81.9026 68.3145 82.4886 68.4316 82.9807 68.666C83.4788 68.9004 83.886 69.2285 84.2024 69.6504C84.5188 70.0664 84.7532 70.5586 84.9055 71.127C85.0579 71.6895 85.1341 72.3047 85.1341 72.9727V73.7021H78.0325V72.375H83.5081V72.252C83.4846 71.8301 83.3968 71.4199 83.2444 71.0215C83.0979 70.623 82.8636 70.2949 82.5413 70.0371C82.219 69.7793 81.7796 69.6504 81.2229 69.6504C80.8538 69.6504 80.5139 69.7295 80.2034 69.8877C79.8929 70.04 79.6263 70.2686 79.4036 70.5732C79.1809 70.8779 79.0081 71.25 78.885 71.6895C78.762 72.1289 78.7005 72.6357 78.7005 73.21V73.5791C78.7005 74.0303 78.762 74.4551 78.885 74.8535C79.0139 75.2461 79.1985 75.5918 79.4388 75.8906C79.6848 76.1895 79.9807 76.4238 80.3264 76.5938C80.678 76.7637 81.0764 76.8486 81.5218 76.8486C82.096 76.8486 82.5823 76.7314 82.9807 76.4971C83.3792 76.2627 83.7278 75.9492 84.0266 75.5566L85.011 76.3389C84.8059 76.6494 84.5452 76.9453 84.2288 77.2266C83.9124 77.5078 83.5227 77.7363 83.0598 77.9121C82.6028 78.0879 82.0608 78.1758 81.4339 78.1758Z" fill="black"/>
</svg>
